{
	"asset":{
		"generator":"Khronos glTF Blender I/O v4.3.47",
		"version":"2.0"
	},
	"scene":0,
	"scenes":[
		{
			"name":"Scene",
			"nodes":[
				0
			]
		}
	],
	"nodes":[
		{
			"mesh":0,
			"name":"muzzle"
		}
	],
	"materials":[
		{
			"doubleSided":true,
			"emissiveFactor":[
				1,
				1,
				1
			],
			"emissiveTexture":{
				"index":0
			},
			"name":"rouge_body",
			"pbrMetallicRoughness":{
				"baseColorFactor":[
					0,
					0,
					0,
					1
				]
			}
		},
		{
			"doubleSided":true,
			"emissiveFactor":[
				1,
				1,
				1
			],
			"emissiveTexture":{
				"index":1
			},
			"name":"rouge_mouth",
			"pbrMetallicRoughness":{
				"baseColorFactor":[
					0,
					0,
					0,
					1
				]
			}
		},
		{
			"doubleSided":true,
			"emissiveFactor":[
				1,
				1,
				1
			],
			"emissiveTexture":{
				"index":2
			},
			"name":"rouge_mouth_side",
			"pbrMetallicRoughness":{
				"baseColorFactor":[
					0,
					0,
					0,
					1
				]
			}
		},
		{
			"doubleSided":true,
			"emissiveFactor":[
				1,
				1,
				1
			],
			"emissiveTexture":{
				"index":3
			},
			"name":"rouge_eyes",
			"pbrMetallicRoughness":{
				"baseColorFactor":[
					0,
					0,
					0,
					1
				]
			}
		}
	],
	"meshes":[
		{
			"name":"Cylinder.012",
			"primitives":[
				{
					"attributes":{
						"POSITION":0,
						"NORMAL":1,
						"TEXCOORD_0":2,
						"COLOR_0":3,
						"COLOR_1":4
					},
					"indices":5,
					"material":0
				},
				{
					"attributes":{
						"POSITION":6,
						"NORMAL":7,
						"TEXCOORD_0":8,
						"COLOR_0":9,
						"COLOR_1":10
					},
					"indices":11,
					"material":1
				},
				{
					"attributes":{
						"POSITION":12,
						"NORMAL":13,
						"TEXCOORD_0":14,
						"COLOR_0":15,
						"COLOR_1":16
					},
					"indices":17,
					"material":2
				},
				{
					"attributes":{
						"POSITION":18,
						"NORMAL":19,
						"TEXCOORD_0":20,
						"COLOR_0":21,
						"COLOR_1":22
					},
					"indices":23,
					"material":3
				}
			]
		}
	],
	"textures":[
		{
			"sampler":0,
			"source":0
		},
		{
			"sampler":0,
			"source":1
		},
		{
			"sampler":0,
			"source":2
		},
		{
			"sampler":0,
			"source":3
		}
	],
	"images":[
		{
			"mimeType":"image/png",
			"name":"rouge_body",
			"uri":"rouge_body.png"
		},
		{
			"mimeType":"image/png",
			"name":"rouge_mouth",
			"uri":"rouge_mouth.png"
		},
		{
			"mimeType":"image/png",
			"name":"rouge_mouth_side",
			"uri":"rouge_mouth_side.png"
		},
		{
			"mimeType":"image/png",
			"name":"rouge_eyes",
			"uri":"rouge_eyes.png"
		}
	],
	"accessors":[
		{
			"bufferView":0,
			"componentType":5126,
			"count":4665,
			"max":[
				1.1452020406723022,
				9.11137866973877,
				1.429716944694519
			],
			"min":[
				-2.374932289123535,
				0.9553854465484619,
				-3.2109546661376953
			],
			"type":"VEC3"
		},
		{
			"bufferView":1,
			"componentType":5126,
			"count":4665,
			"type":"VEC3"
		},
		{
			"bufferView":2,
			"componentType":5126,
			"count":4665,
			"type":"VEC2"
		},
		{
			"bufferView":3,
			"componentType":5126,
			"count":4665,
			"type":"VEC3"
		},
		{
			"bufferView":4,
			"componentType":5123,
			"count":4665,
			"normalized":true,
			"type":"VEC4"
		},
		{
			"bufferView":5,
			"componentType":5123,
			"count":22026,
			"type":"SCALAR"
		},
		{
			"bufferView":6,
			"componentType":5126,
			"count":157,
			"max":[
				0.25256237387657166,
				6.644676685333252,
				-0.04948776960372925
			],
			"min":[
				-0.672313928604126,
				6.057384967803955,
				-0.8873674273490906
			],
			"type":"VEC3"
		},
		{
			"bufferView":7,
			"componentType":5126,
			"count":157,
			"type":"VEC3"
		},
		{
			"bufferView":8,
			"componentType":5126,
			"count":157,
			"type":"VEC2"
		},
		{
			"bufferView":9,
			"componentType":5126,
			"count":157,
			"type":"VEC3"
		},
		{
			"bufferView":10,
			"componentType":5123,
			"count":157,
			"normalized":true,
			"type":"VEC4"
		},
		{
			"bufferView":11,
			"componentType":5123,
			"count":570,
			"type":"SCALAR"
		},
		{
			"bufferView":12,
			"componentType":5126,
			"count":74,
			"max":[
				0.2716411054134369,
				6.827041149139404,
				0.1269403100013733
			],
			"min":[
				-0.7355568408966064,
				6.057384967803955,
				-1.2115700244903564
			],
			"type":"VEC3"
		},
		{
			"bufferView":13,
			"componentType":5126,
			"count":74,
			"type":"VEC3"
		},
		{
			"bufferView":14,
			"componentType":5126,
			"count":74,
			"type":"VEC2"
		},
		{
			"bufferView":15,
			"componentType":5126,
			"count":74,
			"type":"VEC3"
		},
		{
			"bufferView":16,
			"componentType":5123,
			"count":74,
			"normalized":true,
			"type":"VEC4"
		},
		{
			"bufferView":17,
			"componentType":5123,
			"count":324,
			"type":"SCALAR"
		},
		{
			"bufferView":18,
			"componentType":5126,
			"count":138,
			"max":[
				0.3198060691356659,
				7.643911361694336,
				-0.07113534212112427
			],
			"min":[
				-0.5701755285263062,
				6.242129325866699,
				-1.3469758033752441
			],
			"type":"VEC3"
		},
		{
			"bufferView":19,
			"componentType":5126,
			"count":138,
			"type":"VEC3"
		},
		{
			"bufferView":20,
			"componentType":5126,
			"count":138,
			"type":"VEC2"
		},
		{
			"bufferView":21,
			"componentType":5126,
			"count":138,
			"type":"VEC3"
		},
		{
			"bufferView":22,
			"componentType":5123,
			"count":138,
			"normalized":true,
			"type":"VEC4"
		},
		{
			"bufferView":23,
			"componentType":5123,
			"count":438,
			"type":"SCALAR"
		}
	],
	"bufferViews":[
		{
			"buffer":0,
			"byteLength":55980,
			"byteOffset":0,
			"target":34962
		},
		{
			"buffer":0,
			"byteLength":55980,
			"byteOffset":55980,
			"target":34962
		},
		{
			"buffer":0,
			"byteLength":37320,
			"byteOffset":111960,
			"target":34962
		},
		{
			"buffer":0,
			"byteLength":55980,
			"byteOffset":149280,
			"target":34962
		},
		{
			"buffer":0,
			"byteLength":37320,
			"byteOffset":205260,
			"target":34962
		},
		{
			"buffer":0,
			"byteLength":44052,
			"byteOffset":242580,
			"target":34963
		},
		{
			"buffer":0,
			"byteLength":1884,
			"byteOffset":286632,
			"target":34962
		},
		{
			"buffer":0,
			"byteLength":1884,
			"byteOffset":288516,
			"target":34962
		},
		{
			"buffer":0,
			"byteLength":1256,
			"byteOffset":290400,
			"target":34962
		},
		{
			"buffer":0,
			"byteLength":1884,
			"byteOffset":291656,
			"target":34962
		},
		{
			"buffer":0,
			"byteLength":1256,
			"byteOffset":293540,
			"target":34962
		},
		{
			"buffer":0,
			"byteLength":1140,
			"byteOffset":294796,
			"target":34963
		},
		{
			"buffer":0,
			"byteLength":888,
			"byteOffset":295936,
			"target":34962
		},
		{
			"buffer":0,
			"byteLength":888,
			"byteOffset":296824,
			"target":34962
		},
		{
			"buffer":0,
			"byteLength":592,
			"byteOffset":297712,
			"target":34962
		},
		{
			"buffer":0,
			"byteLength":888,
			"byteOffset":298304,
			"target":34962
		},
		{
			"buffer":0,
			"byteLength":592,
			"byteOffset":299192,
			"target":34962
		},
		{
			"buffer":0,
			"byteLength":648,
			"byteOffset":299784,
			"target":34963
		},
		{
			"buffer":0,
			"byteLength":1656,
			"byteOffset":300432,
			"target":34962
		},
		{
			"buffer":0,
			"byteLength":1656,
			"byteOffset":302088,
			"target":34962
		},
		{
			"buffer":0,
			"byteLength":1104,
			"byteOffset":303744,
			"target":34962
		},
		{
			"buffer":0,
			"byteLength":1656,
			"byteOffset":304848,
			"target":34962
		},
		{
			"buffer":0,
			"byteLength":1104,
			"byteOffset":306504,
			"target":34962
		},
		{
			"buffer":0,
			"byteLength":876,
			"byteOffset":307608,
			"target":34963
		}
	],
	"samplers":[
		{
			"magFilter":9729,
			"minFilter":9987
		}
	],
	"buffers":[
		{
			"byteLength":308484,
			"uri":"tetona.bin"
		}
	]
}
